<?xml version="1.0" encoding="UTF-8"?>
<!DOCTYPE svg PUBLIC "-//W3C//DTD SVG 1.1//EN" "http://www.w3.org/Graphics/SVG/1.1/DTD/svg11.dtd">
<!-- Creator: CorelDRAW 2017 -->
<svg xmlns="http://www.w3.org/2000/svg" xml:space="preserve" width="210mm" height="297mm" version="1.1" style="shape-rendering:geometricPrecision; text-rendering:geometricPrecision; image-rendering:optimizeQuality; fill-rule:evenodd; clip-rule:evenodd"
viewBox="0 0 21000 29700"
 xmlns:xlink="http://www.w3.org/1999/xlink">
 <defs>
  <style type="text/css">
   <![CDATA[
    .fil0 {fill:#700808;fill-rule:nonzero}
   ]]>
  </style>
 </defs>
 <g id="Camada_x0020_1">
  <metadata id="CorelCorpID_0Corel-Layer"/>
  <path class="fil0" d="M4349.84 12881.1c19.44,0 34.02,5.83 43.74,17.5 9.71,11.66 15.54,25.26 17.49,40.81l349.85 3950.37c1.94,17.5 -2.92,34.02 -15.55,49.57 -12.64,15.55 -33.04,23.32 -60.25,23.32l-142.86 0c-48.59,0 -88.43,-14.58 -120.5,-42.76 -32.07,-28.18 -50.54,-62.19 -54.42,-103.01l-33.04 -556.84 -299.32 0 -32.07 556.84c-3.89,40.82 -21.38,74.83 -53.45,103.01 -32.07,28.18 -72.88,42.76 -121.47,42.76l-142.86 0c-27.21,0 -46.64,-7.77 -59.28,-23.32 -12.63,-15.55 -18.46,-32.07 -16.52,-49.57l349.85 -3950.37c1.94,-15.55 7.77,-29.15 17.49,-40.81 9.72,-11.67 23.33,-17.5 40.82,-17.5l332.35 0zm-297.37 3052.43l262.39 0 -132.17 -2180.72 -130.22 2180.72z"/>
  <path id="1" class="fil0" d="M6481.01 16962.67c-17.49,0 -31.1,-5.83 -40.82,-17.49 -9.72,-11.66 -15.55,-25.27 -17.49,-40.82l-320.69 -3308.98c-1.95,-17.5 3.88,-34.02 16.52,-49.56 12.63,-15.55 32.07,-23.33 59.28,-23.33l142.85 0c48.59,0 89.41,13.61 121.48,41.79 32.07,28.18 49.56,63.17 53.45,103.98l148.68 2460.6 151.6 -2460.6c3.89,-40.81 22.35,-75.8 54.42,-103.98 32.07,-28.18 71.92,-41.79 120.51,-41.79l142.85 0c27.21,0 47.62,7.78 60.25,23.33 12.64,15.54 17.5,32.06 15.55,49.56l-320.69 3308.98c-1.95,15.55 -7.78,29.16 -17.5,40.82 -9.71,11.66 -23.32,17.49 -40.81,17.49l-329.44 0z"/>
  <path id="2" class="fil0" d="M8606.34 13671.18c0,-44.71 15.55,-80.66 46.65,-107.87 31.1,-27.21 71.91,-40.82 122.44,-40.82l163.27 0c19.43,0 34.01,5.83 43.73,17.49 9.72,11.67 14.58,26.24 14.58,43.74l0 3274c0,29.15 -9.72,53.44 -30.13,73.85 -20.41,20.41 -45.68,31.1 -74.83,31.1l-180.75 0c-29.16,0 -53.45,-10.69 -73.86,-31.1 -20.41,-20.41 -31.1,-44.7 -31.1,-73.85l0 -3186.54z"/>
  <path id="3" class="fil0" d="M10513.02 16962.67c-19.44,0 -34.01,-5.83 -43.73,-17.49 -9.72,-11.66 -14.58,-26.24 -14.58,-43.73l0 -3317.73c0,-17.5 4.86,-32.07 14.58,-43.74 9.72,-11.66 24.29,-17.49 43.73,-17.49l163.26 0c50.54,0 91.35,13.61 122.45,40.82 31.1,27.21 46.65,63.16 46.65,107.87l0 2964.96 358.59 0c44.7,0 80.66,15.55 107.87,46.65 27.21,31.1 40.82,71.91 40.82,122.45l0 99.12c0,19.44 -5.83,34.01 -17.5,43.73 -11.66,9.72 -26.24,14.58 -43.73,14.58l-778.41 0z"/>
  <path id="4" class="fil0" d="M12728.73 13671.18c0,-44.71 15.55,-80.66 46.65,-107.87 31.1,-27.21 71.91,-40.82 122.44,-40.82l163.27 0c19.43,0 34.01,5.83 43.73,17.49 9.72,11.67 14.58,26.24 14.58,43.74l0 3274c0,29.15 -9.72,53.44 -30.13,73.85 -20.41,20.41 -45.68,31.1 -74.83,31.1l-180.75 0c-29.16,0 -53.45,-10.69 -73.86,-31.1 -20.41,-20.41 -31.1,-44.7 -31.1,-73.85l0 -3186.54z"/>
  <path id="5" class="fil0" d="M15638.31 13522.49c19.43,0 34.01,5.83 43.73,17.49 9.72,11.67 14.58,26.24 14.58,43.74l0 3317.73c0,17.49 -4.86,32.07 -14.58,43.73 -9.72,11.66 -24.3,17.49 -43.73,17.49l-163.26 0c-50.54,0 -89.41,-12.63 -116.62,-36.93 -27.21,-24.29 -43.73,-56.36 -49.56,-97.18 0,-23.32 -6.8,-69.97 -21.38,-139.94 -14.58,-69.97 -33.04,-154.51 -55.39,-252.67 -22.36,-98.15 -47.62,-206.02 -74.83,-323.61 -27.21,-117.58 -54.42,-237.12 -81.63,-359.56 -27.21,-122.45 -52.48,-242.95 -76.78,-361.51 -24.29,-118.56 -44.7,-226.43 -60.25,-323.61l29.16 1723c1.94,50.53 -11.67,91.35 -40.82,123.42 -29.15,32.07 -71.91,48.59 -128.28,48.59l-163.26 0c-19.44,0 -34.01,-5.83 -43.73,-17.49 -9.72,-11.66 -14.58,-26.24 -14.58,-43.73l0 -3317.73c0,-17.5 4.86,-32.07 14.58,-43.74 9.72,-11.66 24.29,-17.49 43.73,-17.49l163.26 0c48.59,0 88.44,12.64 118.56,38.87 30.13,26.24 46.65,61.23 50.54,103.99 3.88,31.09 12.63,86.49 26.23,167.15 13.61,80.66 31.1,175.89 52.48,284.73 21.38,108.85 44.7,227.41 69.97,355.68 25.27,128.28 51.51,255.59 77.75,382.89 26.23,127.31 51.5,248.79 75.8,363.46 24.29,114.67 45.67,213.79 65.11,297.37l-29.16 -1845.45c0,-44.71 15.55,-80.66 46.65,-107.87 31.1,-27.21 71.91,-40.82 122.45,-40.82l163.26 0z"/>
  <path id="6" class="fil0" d="M17991.04 13522.49c17.49,0 32.07,4.86 43.73,14.58 11.67,9.72 17.5,24.29 17.5,43.73l0 99.12c0,50.54 -13.61,91.35 -40.82,122.45 -27.21,31.1 -63.17,46.65 -107.87,46.65l-358.59 0 0 1247.79 387.74 0c17.5,0 32.07,4.86 43.74,14.58 11.66,9.72 17.49,24.29 17.49,43.73l0 99.12c0,50.54 -13.61,91.35 -40.82,122.45 -27.21,31.1 -63.16,46.65 -107.87,46.65l-300.28 0 0 1212.8 358.59 0c44.7,0 80.66,15.55 107.87,46.65 27.21,31.1 40.82,71.91 40.82,122.45l0 99.12c0,19.44 -5.83,34.01 -17.5,43.73 -11.66,9.72 -26.24,14.58 -43.73,14.58l-778.41 0c-19.44,0 -34.01,-5.83 -43.73,-17.49 -9.72,-11.66 -14.58,-26.24 -14.58,-43.73l0 -3317.73c0,-17.5 4.86,-32.07 14.58,-43.74 9.72,-11.66 24.29,-17.49 43.73,-17.49l778.41 0z"/>
 </g>
</svg>
